<svg xmlns="http://www.w3.org/2000/svg" width="250" height="250" viewBox="0 0 50 50">
    <g fill="none" fill-rule="evenodd">
        <path fill="#FFCB05" d="M24.997 13c-3.14 0-7.001.706-9.997 1.532V36.34c2.996.827 6.857 1.532 9.997 1.532 3.14 0 7.006-.706 10.003-1.532V14.532C32.003 13.706 28.138 13 24.997 13zm7.952 21.8c-1.35.324-2.708.582-4 .766v-7.174c.785.637 1.425 1.368 2 2.14v-2.759c-.867-1.03-1.842-1.848-2.981-2.337-1.127.467-2.114 1.227-3 2.301v2.774c.522-.76 1.19-1.45 1.987-2.096v7.378c-.702.058-1.369.09-1.983.09-2.222 0-5.118-.398-7.972-1.083V16.072a43.688 43.688 0 0 1 4-.766v7.19c-.785-.636-1.425-1.366-2-2.139v2.759c.867 1.03 1.841 1.848 2.981 2.337 1.126-.466 2.114-1.226 3-2.3v-2.775c-.522.76-1.19 1.451-1.988 2.096V15.08c.7-.058 1.366-.09 1.979-.09 2.223 0 5.12.399 7.977 1.084V34.8z"/>
    </g>
</svg>
