<svg xmlns="http://www.w3.org/2000/svg" width="250" height="250" viewBox="0 0 50 50">
    <g fill="none" fill-rule="evenodd">
        <path fill="#FFCB05" d="M38 24.602a57.337 57.337 0 0 0-3.428-4.374v-6.81h-2.266v4.423c-2.007-1.929-4.047-3.403-6.292-4.58L25.518 13l-.506.243C21.047 15.15 16.556 19.404 13 24.623l1.861 1.317a42.229 42.229 0 0 1 1.582-2.168V35.44l.908.187c2.641.546 5.154.789 8.145.789 3 0 5.518-.245 8.168-.794l.908-.188V23.82a62.644 62.644 0 0 1 1.596 2.141L38 24.601zm-14.216 9.292V26.95h3.432v6.944a47.834 47.834 0 0 1-3.432.001zm8.824-.367c-.95.171-1.892.302-2.86.395v-9.188h-8.006v9.19a34.873 34.873 0 0 1-2.86-.392V21.035c2.263-2.432 4.658-4.392 6.835-5.544 2.441 1.349 4.65 3.121 6.89 5.564v12.472z"/>
    </g>
</svg>
