<svg xmlns="http://www.w3.org/2000/svg" width="250" height="250" viewBox="0 0 55 55">
    <g fill="none" fill-rule="evenodd">
        <g fill="#FFCB05">
            <path d="M12.467 28.379c1.417-.945 3.306-1.417 5.667-3.306 2.362-1.89 2.619-1.776 5.035-3.761a393.013 393.013 0 0 0 2.418-1.988l.04-.032c.15-.123.913-.799 1.43-2.013 1.208-2.838 5.045-12.536 6.145-12.828a1.55 1.55 0 0 1 .388-.051c1.228 0 2.211 1.526 2.21 2.654l-.004 3.62c-.006 3.094-.011 6.72.004 9.056.004.63.489 1.136 1.084 1.136h9.506c2.248 0 3.341 1.035 3.342 3.166 0 1.259-.645 2.43-1.683 3.06-.29.176-.486.483-.533.833-.047.349.061.701.294.955.605.66.94 1.531.94 2.448 0 1.364-.76 2.62-1.936 3.2-.308.152-.53.447-.601.798-.071.352.02.718.242.989.53.641.82 1.462.82 2.31 0 1.365-.76 2.62-1.935 3.199-.308.152-.53.449-.601.8-.071.352.019.719.244.99.527.638.818 1.458.818 2.307 0 1.932-1.51 3.543-3.34 3.59H27.425c-.777-.158-3.568-.947-6.457-1.767l-4.927-1.407a84.724 84.724 0 0 1-3.102-.955m3.833 6.228c5.599 1.508 5.811 1.844 8.298 2.385h3.306l14.783.139h.049l.05-.002c4.096-.102 7.43-3.511 7.43-7.599 0-.822-.136-1.63-.392-2.396a7.553 7.553 0 0 0 1.987-5.092c0-.823-.135-1.632-.392-2.398a7.564 7.564 0 0 0 1.988-5.092c0-.986-.19-1.944-.55-2.833a7.551 7.551 0 0 0 1.614-4.657c-.002-4.352-2.958-7.164-7.53-7.164H39.85c-.002-1.959.001-4.261.006-6.539l.005-3.72c.002-1.717-.769-3.516-2.062-4.81C36.621.65 35.113 0 33.556 0a5.61 5.61 0 0 0-1.372.17c-2.468.62-3.658 2.526-8.495 13.596-.311.713-.577 1.32-.775 1.763a2.035 2.035 0 0 1-.42.61l-.041.032-.035.029c-.113.09-.554.433-2.544 1.983l-.935.726c-1.888 1.471-3.244 2.75-4.732 3.913 0 0-1.616.854-3.306 1.417l-2.834.944.472 23.616 2.606 1.027 4.251 1.417M.71 48.146c-.472-.473-.255-.713-.255-.713L.02 26.148s-.115-.34.22-.673c.472-.473 1.043-.471 1.043-.471l3.437-.07.484 23.656-3.469.072s-.551-.044-1.023-.516"/>
        </g>
    </g>
</svg>
