<svg xmlns="http://www.w3.org/2000/svg" width="250" height="250" viewBox="0 0 50 50">
    <g fill="none" fill-rule="evenodd">
        <path fill="#dcdcdc" stroke-width=".45" d="M35.126 25.055a.48.48 0 0 0-.098.726c.247.27.383.623.383.996 0 .554-.31 1.064-.79 1.3a.462.462 0 0 0-.245.325.482.482 0 0 0 .1.401c.215.261.334.595.334.94 0 .554-.31 1.064-.79 1.3a.462.462 0 0 0-.245.325.48.48 0 0 0 .1.402c.215.26.333.592.333.937 0 .785-.616 1.44-1.363 1.46H26.71c-.318-.065-2.488-.68-3.667-1.013l-.98-.278V25.09c.503-.414 1.923-1.576 2.91-2.383.889-.726.97-.793.986-.808l.017-.013c.06-.05.373-.324.583-.818.493-1.153 2.06-5.094 2.508-5.213a.628.628 0 0 1 .159-.02c.5 0 .902.62.902 1.078l-.002 1.47c-.002 1.259-.005 2.732.002 3.681.001.256.2.462.442.462h3.88c.917 0 1.363.42 1.364 1.287 0 .511-.264.988-.687 1.243zm-15.251 8.467a.641.641 0 0 1-.634.645h-3.732a.641.641 0 0 1-.634-.645v-8.489c0-.354.286-.644.634-.644h3.732c.349 0 .634.29.634.644v8.49zm17.466-7.85A3.061 3.061 0 0 0 38 23.78c0-1.769-1.207-2.911-3.073-2.911H31.84c-.001-.796 0-1.732.002-2.658l.002-1.511c0-.698-.314-1.43-.841-1.956-.481-.48-1.097-.744-1.732-.744-.189 0-.377.023-.56.07-1.007.251-1.493 1.026-3.467 5.524-.127.29-.235.537-.317.717a.823.823 0 0 1-.17.248l-.018.013-.014.011c-.046.037-.226.177-1.038.806l-.382.296-2.283 1.772a2.262 2.262 0 0 0-1.847-.956h-3.914A2.26 2.26 0 0 0 13 24.755v8.734a2.26 2.26 0 0 0 2.262 2.254h3.914c.83 0 1.556-.45 1.949-1.116l.863.23.175.048.259.07c2.285.612 3.504.934 3.823.996l.15.029H33.231c1.672-.042 3.032-1.427 3.032-3.089 0-.334-.055-.663-.16-.974a3.05 3.05 0 0 0 .651-3.044 3.047 3.047 0 0 0 .587-3.22z"/>
    </g>
</svg>
