<svg xmlns="http://www.w3.org/2000/svg" width="100" height="100" viewBox="0 0 100 100">
    <path fill="#DCDCDC" fill-rule="evenodd" d="M50.419 3L35.147 33.943 1 38.905 25.709 62.99 19.876 97l30.543-16.057L80.961 97l-5.833-34.01 24.709-24.085v-.001L65.69 33.943 50.419 3zM32.608 64.173l.622-3.626-2.634-2.57-14.553-14.185 20.111-2.923 3.641-.529 1.629-3.299 8.995-18.224 8.994 18.224 1.629 3.299 3.641.529 20.111 2.923-14.553 14.185-2.634 2.57.622 3.626 3.435 20.03-17.988-9.456-3.257-1.713-3.258 1.713-17.988 9.456 3.435-20.03z"/>
</svg>
