<svg xmlns="http://www.w3.org/2000/svg" width="250" height="250" viewBox="0 0 50 50">
    <g fill="none" fill-rule="evenodd">
        <g fill="#dcdcdc">
            <path d="M17.17 18.488L13 22.658l.165.983c.021.125.54 3.095 2.518 6.3 2.658 4.303 6.693 7.032 11.667 7.89l.987.169 4.175-4.174-3.86-3.86-3.383 3.306c-2.575-1.004-4.663-2.761-6.229-5.248a16.044 16.044 0 0 1-1.297-2.545l3.21-3.21-3.782-3.781z"/>
            <g fill-rule="nonzero">
                <path d="M30.988 26.72a6.707 6.707 0 1 1 0-13.415 6.707 6.707 0 0 1 0 13.415zm0-1.83a4.878 4.878 0 1 0 0-9.756 4.878 4.878 0 0 0 0 9.756z"/>
                <path d="M34.341 19.505v1.83h-4.573v-4.657h1.83v2.827z"/>
            </g>
        </g>
    </g>
</svg>
