<?xml version="1.0" standalone="no"?>
<!DOCTYPE svg PUBLIC "-//W3C//DTD SVG 20010904//EN"
 "http://www.w3.org/TR/2001/REC-SVG-20010904/DTD/svg10.dtd">
<svg version="1.0" xmlns="http://www.w3.org/2000/svg"
 width="300.000000pt" height="300.000000pt" viewBox="0 0 300.000000 300.000000"
 preserveAspectRatio="xMidYMid meet">
<metadata>
Created by potrace 1.11, written by Peter Selinger 2001-2013
</metadata>
<g transform="translate(0.000000,300.000000) scale(0.100000,-0.100000)"
fill="#000000" stroke="none">
<path d="M1210 2030 c-470 -45 -853 -204 -968 -399 -23 -39 -27 -57 -27 -121
0 -69 3 -80 34 -128 113 -177 404 -306 836 -374 200 -31 611 -33 800 -4 522
79 847 246 896 462 40 173 -145 351 -476 457 -258 83 -426 108 -750 112 -143
2 -298 0 -345 -5z m-178 -395 l3 -146 65 146 65 145 113 0 c103 0 113 -2 108
-17 -3 -10 -33 -129 -67 -265 l-61 -248 -75 0 c-73 0 -74 1 -67 23 14 43 71
282 69 285 -2 2 -37 -67 -79 -152 l-75 -156 -60 0 -61 0 -1 153 -1 152 -29
-115 c-16 -63 -34 -132 -40 -152 l-10 -38 -75 0 c-67 0 -75 2 -70 18 10 33
126 501 126 506 0 3 49 6 110 6 l109 0 3 -145z m812 108 c-17 -91 -14 -88 -85
-91 -35 -2 -68 -7 -72 -11 -5 -5 -25 -73 -46 -152 l-37 -144 -77 -3 -77 -3 6
28 c3 15 20 82 38 148 18 66 31 123 29 128 -2 4 -34 7 -70 7 l-65 0 6 28 c4
15 12 44 17 65 l10 37 215 0 215 0 -7 -37z m230 -93 c16 -72 32 -127 36 -123
4 4 15 40 25 78 9 39 24 94 32 123 l14 52 70 0 c38 0 69 -4 69 -8 0 -7 -83
-337 -121 -484 l-10 -38 -74 0 -73 0 -11 33 c-18 58 -51 200 -51 219 0 30 -17
20 -24 -14 -3 -18 -18 -79 -33 -135 l-26 -103 -72 0 -72 0 66 265 66 265 80 0
80 0 29 -130z"/>
</g>
</svg>
