<svg xmlns="http://www.w3.org/2000/svg" width="50" height="50" viewBox="0 0 50 50">
    <path fill="#000" fill-rule="nonzero" d="M38.255 26.487l11.717 11.715-11.777 11.773-1.02-.176-2.276-.391c-12.037-2.075-21.84-8.704-28.27-19.117a48.412 48.412 0 0 1-4.796-10.355 43.087 43.087 0 0 1-.969-3.408 24.05 24.05 0 0 1-.313-1.485L0 11.76 11.762 0l11.552 11.547-7.864 7.864a34.333 34.333 0 0 0 2.316 4.344c3.14 4.988 7.223 8.595 12.22 10.814l8.27-8.082zM4.286 13.131l.21 1.25c.145.865.506 2.378 1.139 4.31a44.444 44.444 0 0 0 4.397 9.498c5.83 9.439 14.64 15.397 25.546 17.277l1.254.215 7.482-7.48-6.09-6.09-7.31 7.144-1.202-.468c-6.349-2.475-11.499-6.812-15.33-12.899a38.834 38.834 0 0 1-3.155-6.188l-.496-1.228 6.925-6.924-5.894-5.892-7.476 7.475z"/>
</svg>
