<svg xmlns="http://www.w3.org/2000/svg" width="40" height="40" viewBox="0 0 40 40">
    <path fill="#000" fill-rule="nonzero" d="M30.087 21.48l9.035 9.033-9.1 9.097-.766-.132-1.77-.304C18.14 37.563 10.53 32.416 5.536 24.33a37.599 37.599 0 0 1-3.724-8.042c-.543-1.656-.858-2.98-.995-3.798L.393 9.966 9.48.88l8.907 8.903-6.105 6.103a26.773 26.773 0 0 0 1.821 3.421c2.455 3.9 5.65 6.719 9.564 8.447l6.419-6.273zM9.482 5.12l-5.875 5.874.168 1c.114.675.395 1.854.888 3.36a34.623 34.623 0 0 0 3.425 7.4c4.543 7.354 11.41 11.998 19.907 13.462L29 36.39l5.88-5.877-4.816-4.815-5.699 5.57-.901-.352c-4.927-1.92-8.923-5.286-11.897-10.01a30.149 30.149 0 0 1-2.45-4.805l-.371-.92 5.4-5.4-4.663-4.66z" opacity=".6"/>
</svg>
