<svg xmlns="http://www.w3.org/2000/svg" width="51" height="51" viewBox="0 0 51 51">
    <path fill="#000" fill-rule="nonzero" d="M39.112 26.659l11.717 11.715-11.777 11.773-1.02-.176-2.276-.391c-12.037-2.075-21.84-8.704-28.27-19.117A48.412 48.412 0 0 1 2.69 20.108a43.087 43.087 0 0 1-.969-3.408 24.05 24.05 0 0 1-.313-1.485l-.551-3.283L12.619.172 24.17 11.719l-7.865 7.864a34.333 34.333 0 0 0 2.317 4.344c3.14 4.988 7.223 8.595 12.22 10.814l8.269-8.082zM5.143 13.303l.21 1.25c.145.865.506 2.378 1.139 4.31a44.444 44.444 0 0 0 4.396 9.498c5.83 9.439 14.64 15.397 25.547 17.277l1.254.215 7.482-7.48-6.09-6.09-7.31 7.144-1.202-.468C24.22 36.484 19.07 32.147 15.24 26.06a38.834 38.834 0 0 1-3.155-6.189l-.496-1.227 6.925-6.924-5.894-5.892-7.476 7.475z" opacity=".6"/>
</svg>
