<svg xmlns="http://www.w3.org/2000/svg" width="28" height="35" viewBox="0 0 28 35">
    <path fill="#000" fill-rule="evenodd" d="M13.996 0C9.599 0 4.194.994 0 2.156v30.688C4.194 34.007 9.6 35 13.996 35c4.397 0 9.808-.994 14.004-2.156V2.156C23.804.994 18.393 0 13.996 0zm11.132 30.676c-1.889.456-3.79.82-5.6 1.078V21.66c1.1.896 1.995 1.924 2.8 3.011V20.79c-1.213-1.45-2.578-2.601-4.173-3.289-1.577.657-2.96 1.726-4.2 3.238v3.904c.73-1.07 1.665-2.042 2.783-2.95v10.382c-.984.082-1.917.126-2.778.126-3.11 0-7.164-.56-11.16-1.523V4.323c1.89-.455 3.79-.819 5.599-1.077v10.117c-1.098-.895-1.994-1.923-2.8-3.01v3.881c1.214 1.452 2.579 2.601 4.175 3.29 1.576-.657 2.959-1.726 4.199-3.238v-3.904c-.73 1.07-1.666 2.042-2.783 2.95V2.926c.98-.082 1.912-.126 2.77-.126 3.113 0 7.17.56 11.168 1.524v26.352z"/>
</svg>
