<svg xmlns="http://www.w3.org/2000/svg" width="40" height="51" viewBox="0 0 40 51">
    <path fill="#000" fill-rule="evenodd" d="M19.994 0C13.714 0 5.992 1.445 0 3.136v44.637c5.992 1.692 13.713 3.136 19.994 3.136 6.281 0 14.012-1.445 20.006-3.136V3.136C34.006 1.446 26.275 0 19.994 0zm15.903 44.62a85.556 85.556 0 0 1-7.999 1.568V31.505c1.57 1.304 2.85 2.799 4 4.38v-5.647c-1.734-2.11-3.683-3.783-5.963-4.783-2.252.955-4.227 2.51-5.999 4.709v5.678c1.044-1.554 2.379-2.97 3.975-4.291v15.102c-1.405.12-2.739.183-3.968.183-4.444 0-10.234-.814-15.943-2.215V6.288a85.594 85.594 0 0 1 7.998-1.567v14.716C10.43 18.135 9.15 16.64 8 15.06v5.646c1.734 2.11 3.683 3.783 5.962 4.784 2.252-.955 4.228-2.51 6-4.709v-5.678c-1.044 1.554-2.38 2.97-3.977 4.29V4.255a47.324 47.324 0 0 1 3.958-.182c4.447 0 10.241.814 15.954 2.216v38.33z"/>
</svg>
