<svg xmlns="http://www.w3.org/2000/svg" width="32" height="32" viewBox="0 0 32 32">
    <g fill="none" fill-rule="evenodd" transform="translate(-72 -936)">
        <path fill="#F5F5F5" d="M0 0h1440v6841H0z"/>
        <circle cx="88" cy="952" r="15" fill="#C1C1C1"/>
        <path fill="#FFF" d="M86.18 954.945c-.108-.303-.13-.627-.13-.929 0-2.396 3.95-3.087 3.95-5.225 0-.928-.82-1.533-2.201-1.533-1.36 0-2.548.497-3.649 1.36l-1.123-1.705c1.231-1.123 3.13-2.008 5.204-2.008 2.677 0 4.663 1.447 4.663 3.735 0 3.411-4.21 4.21-4.21 5.808 0 .173.022.324.043.497H86.18zm1.317 4.728c-.994 0-1.77-.734-1.77-1.641 0-.928.776-1.684 1.77-1.684.971 0 1.748.756 1.748 1.684 0 .907-.777 1.64-1.748 1.64z"/>
    </g>
</svg>
